<svg width="99" height="99" viewBox="0 0 99 99" fill="none" xmlns="http://www.w3.org/2000/svg">
<g filter="url(#filter0_d)">
<rect x="4" width="91" height="91" rx="45.5" fill="#FAC663"/>
<path d="M51.1588 46.617C54.4341 46.617 57.1139 50.0596 57.1139 50.9203C57.1139 51.7809 54.4341 54.6498 51.1588 54.6498C47.8835 54.6498 45.5015 50.9203 45.5015 50.9203C45.5015 50.9203 47.8835 46.617 51.1588 46.617Z" fill="#FFFDFB"/>
<path d="M41.9285 47.4777L45.5015 50.9203M45.5015 50.9203L41.9285 54.3629M45.5015 50.9203C45.5015 50.9203 47.8835 54.6498 51.1588 54.6498C54.4341 54.6498 57.1139 51.7809 57.1139 50.9203C57.1139 50.0596 54.4341 46.617 51.1588 46.617C47.8835 46.617 45.5015 50.9203 45.5015 50.9203Z" stroke="#FFFDFB" stroke-width="2" stroke-linecap="round" stroke-linejoin="round"/>
<path d="M72.1632 38.9608L72.1632 38.9608C72.0925 38.4839 71.6601 38.1044 71.1209 38.1044H67.0462H66.6487L66.559 37.7172C65.9084 34.9062 63.3392 34.0633 63.0435 33.9687L62.8469 33.9058L62.7519 33.7226C61.3626 31.0414 58.4927 30.9067 58.1708 30.896L57.968 30.8892L57.8273 30.743C56.129 28.979 53.8295 28.9614 52.5968 29.2663L52.4022 29.3145L52.2282 29.2148C51.1355 28.5888 48.922 27.9826 46.7716 29.2148L46.5976 29.3145L46.403 29.2664C45.1699 28.9614 42.87 28.9794 41.1721 30.743L41.0314 30.8891L40.8287 30.896C40.51 30.9067 37.636 31.0415 36.2475 33.7228L36.1525 33.9063L35.9557 33.9692C35.6555 34.0651 33.0891 34.9121 32.4403 37.7171L32.3508 38.1044H31.9532H27.8789C27.3397 38.1044 26.9073 38.4839 26.8365 38.9608L26.8365 38.9608L23.5103 61.3679L23.5102 61.3681C23.4688 61.6463 23.5542 61.9315 23.7511 62.1502M72.1632 38.9608L23.7511 62.1502M72.1632 38.9608L75.4899 61.3677C75.5311 61.646 75.4456 61.9313 75.2489 62.1499M72.1632 38.9608L75.2489 62.1499M23.7511 62.1502C23.9487 62.3695 24.2406 62.5 24.5527 62.5H74.4471C74.759 62.5 75.0507 62.3696 75.2489 62.1499M23.7511 62.1502L75.2489 62.1499M38.3379 34.1397L38.3378 34.1399C38.1209 34.9191 37.4486 35.4823 36.647 35.5937C36.6403 35.5973 36.6318 35.602 36.6216 35.6081C36.5692 35.6391 36.4953 35.6894 36.402 35.7602C36.2166 35.9008 35.9823 36.1014 35.7355 36.3367C35.4826 36.5779 35.2297 36.843 35.0094 37.1048H64.0638C63.8586 36.7983 63.6393 36.4997 63.4358 36.2409C63.2527 36.0081 63.088 35.8146 62.9641 35.6819C62.9242 35.6391 62.8911 35.6055 62.8651 35.5804C62.101 35.4429 61.4668 34.8921 61.2578 34.1397L38.3379 34.1397ZM38.3379 34.1397C38.4343 33.7927 38.846 33.3951 39.4877 33.0942C40.1136 32.8007 40.7868 32.6817 41.2017 32.7494C42.0218 32.8833 42.8537 32.5229 43.2939 31.8217C43.5066 31.4833 43.9311 31.1923 44.4494 31.0448C44.9665 30.8977 45.4934 30.9175 45.8759 31.0979C46.6272 31.4523 47.5283 31.3299 48.151 30.7816C48.4584 30.511 48.9562 30.3473 49.4991 30.347C50.0421 30.3467 50.5404 30.5098 50.8492 30.7817C51.472 31.33 52.3726 31.4522 53.1242 31.0979L53.1243 31.0979M38.3379 34.1397L53.1243 31.0979M53.1243 31.0979C53.492 30.9245 54.1666 30.8921 54.8671 31.0493C55.2054 31.1252 55.5217 31.2397 55.7789 31.3809C56.0406 31.5245 56.2121 31.6796 56.3014 31.8218M53.1243 31.0979L58.3943 32.7493M58.3943 32.7493L58.3939 32.7494C57.5742 32.8828 56.7423 32.5237 56.3014 31.8218M58.3943 32.7493C58.8175 32.6801 59.491 32.8029 60.1152 33.099M58.3943 32.7493L60.1152 33.099M56.3014 31.8218L56.7248 31.5558L56.3015 31.8218C56.3014 31.8218 56.3014 31.8218 56.3014 31.8218ZM60.1152 33.099C60.7558 33.4028 61.1637 33.8013 61.2578 34.1396L60.1152 33.099ZM36.4816 34.6067L36.4815 34.6067C36.326 34.6244 36.1848 34.7045 36.1116 34.7479C36.0148 34.8053 35.9078 34.8799 35.7976 34.9635C35.5758 35.1317 35.3127 35.3581 35.0454 35.613C34.5197 36.1143 33.9275 36.7737 33.6049 37.3655L33.202 38.1048H34.044H64.9554H65.7979L65.3943 37.3653C65.0646 36.7611 64.6099 36.1162 64.2218 35.6228C64.0272 35.3753 63.8438 35.1589 63.6952 34.9996C63.6218 34.921 63.5502 34.849 63.4857 34.7927C63.4542 34.7651 63.4155 34.7334 63.373 34.7052L63.3712 34.704C63.3458 34.6871 63.2479 34.622 63.1139 34.6067L63.1137 34.6067C62.6754 34.557 62.3284 34.2575 62.2213 33.872L62.2213 33.8719C62.0076 33.1031 61.2604 32.5354 60.5438 32.1955C59.811 31.8478 58.9256 31.6492 58.2332 31.7624C57.7953 31.8336 57.3673 31.6386 57.1482 31.2899L57.1482 31.2898C56.9373 30.9542 56.6099 30.6963 56.2601 30.5043C55.9059 30.3098 55.4981 30.166 55.086 30.0735C54.2855 29.8939 53.3535 29.8843 52.6978 30.1934C52.3019 30.38 51.8294 30.3123 51.51 30.0311L51.51 30.031C50.97 29.5557 50.2116 29.3466 49.4986 29.347C48.7857 29.3474 48.0283 29.5573 47.4902 30.0311L47.4902 30.0311C47.1707 30.3124 46.6978 30.3799 46.3024 30.1934L46.3024 30.1934C45.6469 29.8843 44.8604 29.8882 44.1757 30.083C43.4922 30.2774 42.8264 30.6862 42.4471 31.2898L42.447 31.29C42.2281 31.6385 41.8001 31.8339 41.3628 31.7624L41.3625 31.7624C40.6813 31.6514 39.7979 31.8443 39.0631 32.1888C38.3441 32.526 37.5911 33.0926 37.3744 33.8717C37.267 34.2576 36.9201 34.557 36.4816 34.6067ZM36.6677 35.5833C36.6677 35.5833 36.6672 35.5835 36.6662 35.5839L36.6677 35.5833ZM24.0619 61.6576L23.9744 62.2328H24.5562H74.4435H75.0254L74.9378 61.6576L71.4593 38.7964L71.3946 38.3716H70.965H28.0348H27.6051L27.5405 38.7964L24.0619 61.6576Z" fill="#FFFDFB" stroke="#FFFDFB" stroke-width="0.999999"/>
</g>
<defs>
<filter id="filter0_d" x="0" y="0" width="99" height="99" filterUnits="userSpaceOnUse" color-interpolation-filters="sRGB">
<feFlood flood-opacity="0" result="BackgroundImageFix"/>
<feColorMatrix in="SourceAlpha" type="matrix" values="0 0 0 0 0 0 0 0 0 0 0 0 0 0 0 0 0 0 127 0"/>
<feOffset dy="4"/>
<feGaussianBlur stdDeviation="2"/>
<feColorMatrix type="matrix" values="0 0 0 0 0 0 0 0 0 0 0 0 0 0 0 0 0 0 0.25 0"/>
<feBlend mode="normal" in2="BackgroundImageFix" result="effect1_dropShadow"/>
<feBlend mode="normal" in="SourceGraphic" in2="effect1_dropShadow" result="shape"/>
</filter>
</defs>
</svg>
